<svg viewBox="0 0 203.464 203.464" xmlns="http://www.w3.org/2000/svg">
<path fill="#ffffff" d="M186.023,12.626C186,5.665,180.305,0,173.329,0c-2.964,0-5.755,1.022-8.07,2.956L55.597,94.522c0,0,0,0,0,0
l-30.286,25.289c-5.323,4.444-8.253,10.969-8.039,17.901l1.655,53.477c0.213,6.883,5.785,12.274,12.686,12.275c0,0,0,0,0.001,0
c2.965,0,5.756-1.021,8.071-2.954l59.856-49.979l0.001,0l78.613-65.641c5.138-4.29,8.072-10.589,8.05-17.282L186.023,12.626z"/>
<path fill="#000000" d="M186.023,12.626C186,5.665,180.305,0,173.329,0c-2.964,0-5.755,1.022-8.07,2.956L55.597,94.522c0,0,0,0,0,0
l-30.286,25.289c-5.323,4.444-8.253,10.969-8.039,17.901l1.655,53.477c0.213,6.883,5.785,12.274,12.686,12.275c0,0,0,0,0.001,0
c2.965,0,5.756-1.021,8.071-2.954l59.856-49.979l0.001,0l78.613-65.641c5.138-4.29,8.072-10.589,8.05-17.282L186.023,12.626z
 M171.744,77.214l-73.112,61.047L65.844,98.993l105.824-88.362c0.501-0.419,1.061-0.631,1.661-0.631c1.115,0,2.688,0.825,2.693,2.66
l0.181,54.981C176.215,71.348,174.59,74.837,171.744,77.214z"/>
</svg>
