<?xml version="1.0" encoding="UTF-8" standalone="no"?>
<!-- Uploaded to: SVG Repo, www.svgrepo.com, Generator: SVG Repo Mixer Tools -->

<svg
   height="800px"
   width="800px"
   version="1.1"
   id="_x32_"
   viewBox="0 0 512 512"
   xml:space="preserve"
   sodipodi:docname="pencil.svg"
   inkscape:version="1.4.3 (0d15f75042, 2025-12-25)"
   xmlns:inkscape="http://www.inkscape.org/namespaces/inkscape"
   xmlns:sodipodi="http://sodipodi.sourceforge.net/DTD/sodipodi-0.dtd"
   xmlns="http://www.w3.org/2000/svg"
   xmlns:svg="http://www.w3.org/2000/svg"><defs
   id="defs1" /><sodipodi:namedview
   id="namedview1"
   pagecolor="#ffffff"
   bordercolor="#000000"
   borderopacity="0.25"
   inkscape:showpageshadow="2"
   inkscape:pageopacity="0.0"
   inkscape:pagecheckerboard="0"
   inkscape:deskcolor="#d1d1d1"
   inkscape:zoom="1"
   inkscape:cx="299"
   inkscape:cy="378"
   inkscape:window-width="2560"
   inkscape:window-height="1372"
   inkscape:window-x="0"
   inkscape:window-y="0"
   inkscape:window-maximized="1"
   inkscape:current-layer="g1" />
<style
   type="text/css"
   id="style1">
	.st0{fill:#000000;}
</style>
<g
   id="g1">
	<path
   class="st0"
   d="m 497.209,88.393 -73.626,-73.6 C 403.862,-4.919 371.927,-4.936 352.207,14.776 L 304.473,62.51 71.218,295.816 c -9.671,9.662 -17.066,21.341 -21.695,34.193 L 2.238,461.6 c -4.93,13.73 -1.492,29.064 8.818,39.372 10.318,10.317 25.659,13.739 39.39,8.801 l 131.565,-47.286 c 12.851,-4.628 24.539,-12.032 34.201,-21.694 C 309.86613,347.1068 403.5606,253.46093 497.21,159.77 l 0.026,-0.018 c 19.625,-19.713 19.703,-51.612 -0.027,-71.359 z m -410.967,371 -33.606,-33.607 C 63.829247,397.83002 71.814734,367.81981 83.51,340.163 l 88.339,88.339 c -28.452,10.50064 -57.06197,20.62941 -85.607,30.891 z m 101.259,-40.2 -94.674,-94.674 C 170.71526,245.72473 249.33992,167.58268 327.685,89.22 l 95.079,95.08 C 340.18894,257.68234 271.98526,348.03495 187.501,419.193 Z M 472.247,134.808 c -12.33483,12.33617 -24.6665,24.6755 -37.002,37.011 L 340.165,76.74 377.168,39.737 c 5.921,-5.896 15.506,-5.905 21.454,0.017 l 73.625,73.609 c 5.921,5.904 5.93,15.489 -0.026,21.47 z"
   id="path1"
   sodipodi:nodetypes="cccccccccccccccccccccccccccccccc" />
</g>
</svg>
