<svg viewBox="0 0 8.467 8.467" xmlns="http://www.w3.org/2000/svg">
<g transform="translate(0,-288.533)" fill="#000000">
<path d="m 3.704,288.798 a 0.265,0.265 0 0 0 -0.251,0.181 l -0.269,0.806 c -0.108,0.038 -0.215,0.082 -0.318,0.132 l -0.76,-0.38 a 0.265,0.265 0 0 0 -0.305,0.05 l -0.748,0.748 a 0.265,0.265 0 0 0 -0.05,0.305 l 0.379,0.759 c -0.05,0.104 -0.094,0.211 -0.132,0.32 l -0.805,0.269 a 0.265,0.265 0 0 0 -0.181,0.251 v 1.058 a 0.265,0.265 0 0 0 0.181,0.251 l 0.808,0.269 c 0.038,0.108 0.082,0.213 0.131,0.316 l -0.381,0.762 a 0.265,0.265 0 0 0 0.05,0.305 l 0.748,0.749 a 0.265,0.265 0 0 0 0.305,0.05 l 0.76,-0.38 c 0.104,0.05 0.209,0.093 0.318,0.131 l 0.269,0.807 a 0.265,0.265 0 0 0 0.251,0.181 h 1.058 a 0.265,0.265 0 0 0 0.251,-0.181 l 0.269,-0.809 c 0.108,-0.038 0.213,-0.082 0.316,-0.131 l 0.762,0.381 a 0.265,0.265 0 0 0 0.305,-0.05 l 0.748,-0.749 a 0.265,0.265 0 0 0 0.05,-0.305 l -0.38,-0.76 c 0.05,-0.104 0.094,-0.21 0.132,-0.319 l 0.806,-0.269 a 0.265,0.265 0 0 0 0.181,-0.251 v -1.058 a 0.265,0.265 0 0 0 -0.181,-0.251 l -0.807,-0.269 c -0.038,-0.108 -0.082,-0.214 -0.132,-0.318 l 0.38,-0.761 a 0.265,0.265 0 0 0 -0.05,-0.305 l -0.748,-0.748 a 0.265,0.265 0 0 0 -0.305,-0.05 l -0.758,0.379 c -0.105,-0.05 -0.212,-0.094 -0.321,-0.132 l -0.268,-0.805 a 0.265,0.265 0 0 0 -0.251,-0.181 z m 0.191,0.529 h 0.677 l 0.245,0.737 a 0.265,0.265 0 0 0 0.176,0.17 c 0.172,0.051 0.339,0.12 0.497,0.205 a 0.265,0.265 0 0 0 0.243,0.004 l 0.694,-0.347 0.479,0.479 -0.348,0.697 a 0.265,0.265 0 0 0 0.003,0.244 c 0.085,0.157 0.154,0.322 0.205,0.493 a 0.265,0.265 0 0 0 0.169,0.175 l 0.739,0.246 v 0.677 l -0.738,0.246 a 0.265,0.265 0 0 0 -0.169,0.175 c -0.051,0.171 -0.12,0.337 -0.205,0.495 a 0.265,0.265 0 0 0 -0.003,0.244 l 0.347,0.695 -0.479,0.479 -0.698,-0.349 a 0.265,0.265 0 0 0 -0.244,0.004 c -0.157,0.084 -0.321,0.153 -0.491,0.204 a 0.265,0.265 0 0 0 -0.175,0.17 l -0.247,0.74 H 3.895 l -0.247,-0.739 a 0.265,0.265 0 0 0 -0.175,-0.17 c -0.171,-0.051 -0.337,-0.119 -0.494,-0.204 a 0.265,0.265 0 0 0 -0.243,-0.004 l -0.696,0.348 -0.479,-0.479 0.349,-0.698 a 0.265,0.265 0 0 0 -0.004,-0.244 c -0.084,-0.157 -0.153,-0.322 -0.205,-0.492 a 0.265,0.265 0 0 0 -0.169,-0.175 l -0.739,-0.246 v -0.677 l 0.737,-0.246 a 0.265,0.265 0 0 0 0.17,-0.175 c 0.051,-0.172 0.12,-0.338 0.205,-0.496 a 0.265,0.265 0 0 0 0.004,-0.244 l -0.347,-0.694 0.479,-0.479 0.696,0.348 a 0.265,0.265 0 0 0 0.244,-0.004 c 0.157,-0.085 0.323,-0.154 0.494,-0.205 a 0.265,0.265 0 0 0 0.175,-0.17 z"/>
<path d="m 4.232,290.914 c -1.02,0 -1.851,0.834 -1.851,1.854 0,1.019 0.831,1.851 1.851,1.851 1.02,0 1.854,-0.832 1.854,-1.851 0,-1.02 -0.834,-1.854 -1.854,-1.854 z m 0,0.53 c 0.734,0 1.324,0.59 1.324,1.324 0,0.734 -0.59,1.322 -1.324,1.322 -0.734,0 -1.322,-0.588 -1.322,-1.322 0,-0.734 0.588,-1.324 1.322,-1.324 z"/>
</g>
</svg>
